<svg width="205" height="133" viewBox="0 0 205 133" fill="none" xmlns="http://www.w3.org/2000/svg">
<path d="M72.8168 45.3052C70.1538 42.4292 67.2808 46.0992 65.9208 48.3272C63.5668 52.1862 62.3338 56.4912 62.0788 60.9272C61.3158 59.7182 60.5198 58.5372 59.6298 57.4772C58.8488 56.5462 58.0458 55.7302 56.7348 56.0662C53.1118 56.9942 54.1748 65.9622 54.4658 68.3332C54.8978 71.8432 55.9008 76.9402 59.4628 78.7582C62.9568 80.5412 66.0248 77.9952 67.7738 75.0932C70.7558 70.1452 72.4138 63.9912 73.2988 58.3422C73.8158 55.0542 75.4588 48.1582 72.8168 45.3052Z" fill="white"/>
<path d="M157.941 60.9719C156.445 57.1099 151.668 57.9089 148.682 59.1099C145.086 60.5559 142.081 62.9969 139.795 66.0339C139.247 62.6649 137.99 59.3399 134.453 58.1789C130.275 56.8069 127.777 60.1289 127.06 63.8809C125.504 72.0199 127.945 85.3909 139.15 83.1089C144.925 81.9329 149.752 76.9729 153.262 72.5679C155.529 69.7239 159.504 65.0049 157.941 60.9719Z" fill="white"/>
<path d="M19.4427 99.9234C16.2227 98.9834 13.1247 103.959 11.9217 106.193C10.6737 108.511 9.9627 110.968 9.7137 113.485C8.3977 111.863 7.04671 110.242 5.53871 108.934C4.56071 108.085 3.61571 107.207 2.23271 107.71C-1.04729 108.904 0.157721 115.161 0.496721 117.435C1.08272 121.367 2.56273 128.43 6.45473 130.663C10.3257 132.884 13.8207 129.283 15.7827 126.25C18.8017 121.585 20.7007 116.147 21.4307 110.652C21.7597 108.183 23.1437 101.004 19.4427 99.9234Z" fill="white"/>
<path d="M146.685 17.3478C146.082 13.4798 141.612 15.2188 139.21 16.3078C134.929 18.2488 131.53 21.5158 129.237 25.5498C128.849 23.0638 128.47 20.5588 125.905 19.5028C122.063 17.9208 120.141 22.6868 119.221 25.4648C117.992 29.1728 116.41 35.4428 119.189 38.8238C121.554 41.7028 125.732 40.6958 128.612 39.2888C133.545 36.8778 137.911 32.9528 141.218 28.6118C143.181 26.0348 147.245 20.9368 146.685 17.3478Z" fill="white"/>
<path d="M203.274 62.5106C202.978 61.7746 202.233 61.5786 201.611 62.0716C199.268 63.9276 197.783 66.4176 197.236 69.1416C194.729 67.6666 191.895 67.0386 189.334 69.1276C185.406 72.3326 188.802 78.1986 191.484 81.0506C194.676 84.4456 198.997 83.9526 201.846 80.3886C205.779 75.4696 205.502 68.0436 203.274 62.5106Z" fill="white"/>
<path d="M29.3099 58.3027C28.2959 56.1467 25.7999 55.6597 23.7459 56.6277C20.9049 57.9667 20.402 61.0247 20.429 63.8807C18.997 61.8887 17.208 60.1407 14.597 60.0377C11.839 59.9287 9.75295 61.7617 9.75195 64.5437C9.75095 67.7257 12.603 71.7158 14.709 73.9198C16.882 76.1948 20.1269 77.7417 23.2669 76.6177C26.6009 75.4237 27.3379 71.8147 28.0459 68.7467C28.7129 65.8567 30.6879 61.2327 29.3099 58.3027Z" fill="white"/>
<path d="M189.947 113.647C188.933 111.491 186.437 111.004 184.383 111.972C181.542 113.311 181.039 116.369 181.066 119.225C179.634 117.233 177.845 115.485 175.234 115.382C172.476 115.273 170.39 117.106 170.389 119.888C170.388 123.07 173.24 127.06 175.346 129.265C177.519 131.54 180.764 133.087 183.904 131.963C187.238 130.769 187.975 127.16 188.683 124.092C189.35 121.201 191.325 116.577 189.947 113.647Z" fill="white"/>
<path d="M77.7067 2.85263C76.2037 0.0466266 73.0957 -0.906374 70.4047 0.978626C67.6877 2.88163 67.3387 5.96063 67.6437 8.97863C66.6157 8.64763 65.5047 8.54162 64.2997 8.75462C61.2967 9.28562 59.4877 11.9196 59.1587 14.8276C58.6387 19.4196 61.9557 23.3306 64.9087 26.4346C67.2147 28.8596 70.5327 31.2246 73.8397 29.0836C77.2507 26.8766 78.1727 21.5846 78.7307 17.9556C79.4177 13.4826 79.9477 7.03463 77.7067 2.85263Z" fill="white"/>
</svg>
